<mxfile host="app.diagrams.net" modified="2023-11-09T15:44:41.186Z" agent="Mozilla/5.0 (Windows NT 10.0; Win64; x64) AppleWebKit/537.36 (KHTML, like Gecko) Chrome/119.0.0.0 Safari/537.36" etag="ATSG9ASrz9ullITIs0H7" version="22.1.0" type="github" pages="2">
  <diagram name="第 1 页" id="Pft3mv4W4iu1Uh_O-iZA">
    <mxGraphModel dx="2048" dy="725" grid="1" gridSize="10" guides="1" tooltips="1" connect="1" arrows="1" fold="1" page="1" pageScale="1" pageWidth="827" pageHeight="1169" math="0" shadow="0">
      <root>
        <mxCell id="0" />
        <mxCell id="1" parent="0" />
        <mxCell id="6WLEmEggSiIrKEwCdjT3-1" value="3" style="ellipse;whiteSpace=wrap;html=1;aspect=fixed;" vertex="1" parent="1">
          <mxGeometry x="140" y="170" width="80" height="80" as="geometry" />
        </mxCell>
        <mxCell id="6WLEmEggSiIrKEwCdjT3-2" value="4" style="ellipse;whiteSpace=wrap;html=1;aspect=fixed;" vertex="1" parent="1">
          <mxGeometry x="270" y="170" width="80" height="80" as="geometry" />
        </mxCell>
        <mxCell id="6WLEmEggSiIrKEwCdjT3-3" value="5" style="ellipse;whiteSpace=wrap;html=1;aspect=fixed;" vertex="1" parent="1">
          <mxGeometry x="414" y="170" width="80" height="80" as="geometry" />
        </mxCell>
        <mxCell id="6WLEmEggSiIrKEwCdjT3-4" value="6" style="ellipse;whiteSpace=wrap;html=1;aspect=fixed;" vertex="1" parent="1">
          <mxGeometry x="570" y="170" width="80" height="80" as="geometry" />
        </mxCell>
        <mxCell id="6WLEmEggSiIrKEwCdjT3-5" value="2" style="ellipse;whiteSpace=wrap;html=1;aspect=fixed;" vertex="1" parent="1">
          <mxGeometry x="-20" y="170" width="80" height="80" as="geometry" />
        </mxCell>
        <mxCell id="6WLEmEggSiIrKEwCdjT3-6" value="1" style="ellipse;whiteSpace=wrap;html=1;aspect=fixed;" vertex="1" parent="1">
          <mxGeometry x="-160" y="170" width="80" height="80" as="geometry" />
        </mxCell>
        <mxCell id="6WLEmEggSiIrKEwCdjT3-7" value="7" style="ellipse;whiteSpace=wrap;html=1;aspect=fixed;" vertex="1" parent="1">
          <mxGeometry x="710" y="330" width="80" height="80" as="geometry" />
        </mxCell>
        <mxCell id="6WLEmEggSiIrKEwCdjT3-8" value="3" style="ellipse;whiteSpace=wrap;html=1;aspect=fixed;" vertex="1" parent="1">
          <mxGeometry x="140" y="330" width="80" height="80" as="geometry" />
        </mxCell>
        <mxCell id="6WLEmEggSiIrKEwCdjT3-9" value="4" style="ellipse;whiteSpace=wrap;html=1;aspect=fixed;" vertex="1" parent="1">
          <mxGeometry x="270" y="330" width="80" height="80" as="geometry" />
        </mxCell>
        <mxCell id="6WLEmEggSiIrKEwCdjT3-10" value="5" style="ellipse;whiteSpace=wrap;html=1;aspect=fixed;" vertex="1" parent="1">
          <mxGeometry x="414" y="330" width="80" height="80" as="geometry" />
        </mxCell>
        <mxCell id="6WLEmEggSiIrKEwCdjT3-11" value="6" style="ellipse;whiteSpace=wrap;html=1;aspect=fixed;" vertex="1" parent="1">
          <mxGeometry x="570" y="330" width="80" height="80" as="geometry" />
        </mxCell>
        <mxCell id="6WLEmEggSiIrKEwCdjT3-12" value="2" style="ellipse;whiteSpace=wrap;html=1;aspect=fixed;" vertex="1" parent="1">
          <mxGeometry x="-20" y="330" width="80" height="80" as="geometry" />
        </mxCell>
        <mxCell id="6WLEmEggSiIrKEwCdjT3-13" value="1" style="ellipse;whiteSpace=wrap;html=1;aspect=fixed;" vertex="1" parent="1">
          <mxGeometry x="-160" y="330" width="80" height="80" as="geometry" />
        </mxCell>
        <mxCell id="6WLEmEggSiIrKEwCdjT3-14" value="slow" style="rounded=0;whiteSpace=wrap;html=1;" vertex="1" parent="1">
          <mxGeometry x="275" y="440" width="70" height="30" as="geometry" />
        </mxCell>
        <mxCell id="6WLEmEggSiIrKEwCdjT3-17" value="fast" style="rounded=0;whiteSpace=wrap;html=1;" vertex="1" parent="1">
          <mxGeometry x="800" y="500" width="80" height="30" as="geometry" />
        </mxCell>
        <mxCell id="6WLEmEggSiIrKEwCdjT3-19" value="dummy" style="ellipse;whiteSpace=wrap;html=1;aspect=fixed;" vertex="1" parent="1">
          <mxGeometry x="-310" y="250" width="80" height="80" as="geometry" />
        </mxCell>
        <mxCell id="6WLEmEggSiIrKEwCdjT3-26" value="fast != null &amp;amp;&amp;amp; fast.next != null" style="text;html=1;align=center;verticalAlign=middle;resizable=0;points=[];autosize=1;strokeColor=none;fillColor=none;" vertex="1" parent="1">
          <mxGeometry x="-360" y="380" width="180" height="30" as="geometry" />
        </mxCell>
        <mxCell id="6WLEmEggSiIrKEwCdjT3-28" value="n ^ 1 == 0&lt;br&gt;slow = slow.next" style="text;html=1;align=center;verticalAlign=middle;resizable=0;points=[];autosize=1;strokeColor=none;fillColor=none;" vertex="1" parent="1">
          <mxGeometry x="-190" y="30" width="110" height="40" as="geometry" />
        </mxCell>
        <mxCell id="6WLEmEggSiIrKEwCdjT3-29" value="slow" style="rounded=0;whiteSpace=wrap;html=1;" vertex="1" parent="1">
          <mxGeometry x="145" y="100" width="70" height="30" as="geometry" />
        </mxCell>
        <mxCell id="6WLEmEggSiIrKEwCdjT3-30" value="fast" style="rounded=0;whiteSpace=wrap;html=1;" vertex="1" parent="1">
          <mxGeometry x="570" y="100" width="80" height="30" as="geometry" />
        </mxCell>
      </root>
    </mxGraphModel>
  </diagram>
  <diagram id="7PurgXR0pnyAKWgHndvO" name="第 2 页">
    <mxGraphModel dx="1221" dy="737" grid="1" gridSize="10" guides="1" tooltips="1" connect="1" arrows="1" fold="1" page="1" pageScale="1" pageWidth="827" pageHeight="1169" math="0" shadow="0">
      <root>
        <mxCell id="0" />
        <mxCell id="1" parent="0" />
      </root>
    </mxGraphModel>
  </diagram>
</mxfile>
